<?xml version="1.0" standalone="no"?>
<!DOCTYPE svg PUBLIC "-//W3C//DTD SVG 20010904//EN"
 "http://www.w3.org/TR/2001/REC-SVG-20010904/DTD/svg10.dtd">
<svg version="1.0" xmlns="http://www.w3.org/2000/svg"
 width="700.000000pt" height="700.000000pt" viewBox="0 0 700.000000 700.000000"
 preserveAspectRatio="xMidYMid meet">
<metadata>
Created by potrace 1.14, written by Peter Selinger 2001-2017
</metadata>
<g transform="translate(0.000000,700.000000) scale(0.100000,-0.100000)"
fill="#000000" stroke="none">
<path d="M3269 6886 c-2 -2 -40 -7 -84 -10 -44 -4 -91 -9 -105 -11 -14 -2 -45
-7 -70 -10 -195 -26 -560 -119 -705 -180 -16 -7 -70 -30 -120 -50 -146 -61
-338 -160 -480 -248 -53 -33 -236 -158 -251 -172 -6 -5 -26 -21 -44 -35 -35
-26 -74 -58 -145 -120 -62 -54 -285 -279 -337 -340 -92 -109 -210 -263 -243
-318 -6 -9 -27 -42 -47 -73 -136 -210 -263 -478 -352 -739 -39 -116 -96 -328
-111 -410 -10 -57 -15 -86 -19 -106 -2 -12 -8 -45 -11 -75 -4 -30 -9 -65 -11
-79 -26 -172 -25 -656 1 -830 2 -14 6 -45 10 -70 37 -261 125 -580 225 -816
37 -87 163 -343 190 -384 5 -8 37 -60 71 -115 64 -104 222 -319 305 -415 26
-30 109 -116 183 -191 365 -362 799 -631 1301 -803 57 -20 113 -38 125 -41 11
-2 54 -13 95 -24 100 -27 252 -59 344 -71 41 -6 83 -12 93 -14 71 -14 223 -21
438 -20 219 0 280 3 395 19 14 2 50 7 80 10 30 4 64 9 75 11 530 97 975 281
1393 576 62 44 118 85 125 91 7 7 35 30 62 52 80 63 122 102 246 225 104 104
133 135 219 236 179 208 398 566 504 824 15 36 33 79 41 95 7 17 34 91 59 165
63 189 111 392 141 595 4 22 8 51 10 65 21 136 28 583 12 730 -5 41 -10 91
-12 110 -3 31 -14 103 -30 195 -3 17 -12 62 -21 100 -9 39 -18 80 -20 92 -9
45 -75 263 -104 344 -108 295 -260 585 -434 824 -176 244 -412 491 -642 676
-372 298 -817 519 -1279 636 -106 27 -108 27 -197 43 -68 13 -88 16 -149 24
-25 4 -57 9 -72 11 -14 3 -47 8 -74 11 -56 6 -569 15 -574 10z m2041 -2326 c0
-3 -66 -128 -146 -276 -80 -148 -164 -303 -186 -344 -22 -41 -43 -79 -47 -85
-5 -5 -32 -55 -61 -110 -29 -55 -78 -147 -110 -205 -31 -58 -74 -136 -95 -175
-21 -38 -52 -97 -70 -130 -18 -33 -90 -166 -160 -295 -70 -129 -138 -253 -150
-275 -12 -22 -45 -84 -74 -137 l-53 -98 -1234 0 c-679 0 -1234 3 -1234 6 0 6
85 165 172 324 14 25 44 81 68 125 24 44 53 98 65 120 12 22 39 72 60 110 21
39 66 122 100 185 34 63 106 196 160 295 54 99 110 203 125 230 15 28 58 106
95 175 37 69 80 148 95 175 15 28 47 86 71 130 23 44 53 98 65 120 12 22 34
63 48 91 l26 50 1235 0 c679 0 1235 -2 1235 -6z"/>
</g>
</svg>
